<svg width="1440" height="466" viewBox="0 0 1440 466" fill="none" xmlns="http://www.w3.org/2000/svg">
<path d="M0 422.51C202.703 422.51 347.472 387.633 480.333 389.758C789.74 394.705 643.639 247.682 960.667 247.682C1305.86 247.682 1223.24 118 1441 118" stroke="#5F82FF" stroke-width="3"/>
<path d="M480.333 389.758C347.472 387.633 202.703 422.51 0 422.51V465H1441V118C1223.24 118 1305.86 247.682 960.667 247.682C643.639 247.682 789.74 394.705 480.333 389.758Z" fill="url(#paint0_linear)" fill-opacity="0.4" stroke="#5F82FF"/>
<line x1="924.5" y1="200" x2="924.5" y2="389" stroke="#5F82FF"/>
<g filter="url(#filter0_d)">
<circle cx="924.5" cy="248.5" r="7.5" fill="white"/>
<circle cx="924.5" cy="248.5" r="6.5" stroke="#5F82FF" stroke-width="2"/>
</g>
<line x1="1332.5" x2="1332.5" y2="317" stroke="#5F82FF"/>
<g filter="url(#filter1_d)">
<circle cx="1332.5" cy="134.5" r="7.5" fill="white"/>
<circle cx="1332.5" cy="134.5" r="6.5" stroke="#5F82FF" stroke-width="2"/>
</g>
<line x1="515.5" y1="378" x2="515.5" y2="437" stroke="#5F82FF"/>
<line x1="107.5" y1="262" x2="107.5" y2="452" stroke="#5F82FF"/>
<g filter="url(#filter2_d)">
<circle cx="107.5" cy="419.5" r="7.5" fill="white"/>
<circle cx="107.5" cy="419.5" r="6.5" stroke="#5F82FF" stroke-width="2"/>
</g>
<g filter="url(#filter3_d)">
<circle cx="515.5" cy="389.5" r="7.5" fill="white"/>
<circle cx="515.5" cy="389.5" r="6.5" stroke="#5F82FF" stroke-width="2"/>
</g>
<g filter="url(#filter4_d)">
<mask id="path-15-inside-1" fill="white">
<path fill-rule="evenodd" clip-rule="evenodd" d="M562 303C562 301.343 560.657 300 559 300H473C471.343 300 470 301.343 470 303V360.26C470 361.917 471.343 363.26 473 363.26H509.669C510.665 363.26 511.596 363.754 512.154 364.579L513.515 366.591C514.705 368.35 517.295 368.35 518.485 366.591L519.846 364.579C520.403 363.754 521.335 363.26 522.331 363.26H559C560.657 363.26 562 361.917 562 360.26V303Z"/>
</mask>
<path fill-rule="evenodd" clip-rule="evenodd" d="M562 303C562 301.343 560.657 300 559 300H473C471.343 300 470 301.343 470 303V360.26C470 361.917 471.343 363.26 473 363.26H509.669C510.665 363.26 511.596 363.754 512.154 364.579L513.515 366.591C514.705 368.35 517.295 368.35 518.485 366.591L519.846 364.579C520.403 363.754 521.335 363.26 522.331 363.26H559C560.657 363.26 562 361.917 562 360.26V303Z" fill="white"/>
<path d="M519.846 364.579L519.017 364.019L519.846 364.579ZM513.515 366.591L514.343 366.031L513.515 366.591ZM512.154 364.579L511.326 365.14L512.154 364.579ZM473 301H559V299H473V301ZM471 360.26V303H469V360.26H471ZM509.669 362.26H473V364.26H509.669V362.26ZM514.343 366.031L512.983 364.019L511.326 365.14L512.687 367.151L514.343 366.031ZM519.017 364.019L517.657 366.031L519.313 367.151L520.674 365.14L519.017 364.019ZM559 362.26H522.331V364.26H559V362.26ZM561 303V360.26H563V303H561ZM559 364.26C561.209 364.26 563 362.469 563 360.26H561C561 361.365 560.105 362.26 559 362.26V364.26ZM520.674 365.14C521.046 364.59 521.667 364.26 522.331 364.26V362.26C521.003 362.26 519.761 362.919 519.017 364.019L520.674 365.14ZM512.687 367.151C514.273 369.497 517.727 369.497 519.313 367.151L517.657 366.031C516.864 367.204 515.136 367.204 514.343 366.031L512.687 367.151ZM509.669 364.26C510.333 364.26 510.954 364.59 511.326 365.14L512.983 364.019C512.239 362.919 510.997 362.26 509.669 362.26V364.26ZM469 360.26C469 362.469 470.791 364.26 473 364.26V362.26C471.895 362.26 471 361.365 471 360.26H469ZM559 301C560.105 301 561 301.895 561 303H563C563 300.791 561.209 299 559 299V301ZM473 299C470.791 299 469 300.791 469 303H471C471 301.895 471.895 301 473 301V299Z" fill="#5F82FF" mask="url(#path-15-inside-1)"/>
<path d="M499 333.25C499 323.723 506.668 316 516.128 316C517.871 316 519.554 316.262 521.139 316.75" stroke="#5F82FF" stroke-width="4" stroke-linecap="round" stroke-linejoin="round"/>
<mask id="path-18-inside-2" fill="white">
<path fill-rule="evenodd" clip-rule="evenodd" d="M512.442 336.962C514.477 339.013 517.778 339.013 519.814 336.962C521.849 334.912 530.276 320.5 529.532 319.75C528.787 319 514.477 327.487 512.442 329.538C510.406 331.588 510.406 334.912 512.442 336.962ZM516.128 334.75C516.95 334.75 517.617 334.078 517.617 333.25C517.617 332.422 516.95 331.75 516.128 331.75C515.305 331.75 514.638 332.422 514.638 333.25C514.638 334.078 515.305 334.75 516.128 334.75Z"/>
</mask>
<path fill-rule="evenodd" clip-rule="evenodd" d="M512.442 336.962C514.477 339.013 517.778 339.013 519.814 336.962C521.849 334.912 530.276 320.5 529.532 319.75C528.787 319 514.477 327.487 512.442 329.538C510.406 331.588 510.406 334.912 512.442 336.962ZM516.128 334.75C516.95 334.75 517.617 334.078 517.617 333.25C517.617 332.422 516.95 331.75 516.128 331.75C515.305 331.75 514.638 332.422 514.638 333.25C514.638 334.078 515.305 334.75 516.128 334.75Z" fill="#5F82FF"/>
<path d="M519.814 336.962L520.523 337.667L519.814 336.962ZM512.442 336.962L513.151 336.258H513.151L512.442 336.962ZM529.532 319.75L530.241 319.045V319.045L529.532 319.75ZM512.442 329.538L511.732 328.833H511.732L512.442 329.538ZM519.104 336.258C517.459 337.914 514.796 337.914 513.151 336.258L511.732 337.667C514.159 340.111 518.096 340.111 520.523 337.667L519.104 336.258ZM528.822 320.455C528.622 320.253 528.589 320.035 528.582 319.977C528.574 319.906 528.582 319.873 528.578 319.901C528.57 319.955 528.541 320.08 528.467 320.293C528.323 320.708 528.066 321.3 527.713 322.034C527.01 323.492 525.976 325.404 524.848 327.371C523.721 329.335 522.509 331.337 521.455 332.971C520.377 334.644 519.525 335.834 519.104 336.258L520.523 337.667C521.12 337.066 522.085 335.686 523.136 334.055C524.212 332.387 525.441 330.355 526.583 328.366C527.722 326.38 528.783 324.421 529.515 322.902C529.878 322.147 530.174 321.473 530.356 320.949C530.445 320.692 530.523 320.428 530.557 320.188C530.575 320.069 530.588 319.912 530.568 319.742C530.55 319.586 530.488 319.293 530.241 319.045L528.822 320.455ZM513.151 330.242C513.572 329.818 514.753 328.961 516.413 327.875C518.036 326.814 520.024 325.593 521.974 324.458C523.926 323.322 525.825 322.28 527.273 321.573C528.001 321.217 528.588 320.959 528.999 320.814C529.211 320.74 529.333 320.711 529.385 320.703C529.412 320.699 529.377 320.708 529.304 320.699C529.243 320.692 529.023 320.657 528.822 320.455L530.241 319.045C529.994 318.796 529.701 318.732 529.542 318.713C529.371 318.693 529.213 318.707 529.094 318.724C528.854 318.76 528.59 318.838 528.335 318.928C527.813 319.112 527.144 319.41 526.394 319.776C524.886 320.513 522.94 321.582 520.968 322.729C518.993 323.879 516.975 325.118 515.319 326.201C513.7 327.26 512.329 328.232 511.732 328.833L513.151 330.242ZM513.151 336.258C511.503 334.597 511.503 331.903 513.151 330.242L511.732 328.833C509.309 331.273 509.309 335.227 511.732 337.667L513.151 336.258ZM516.617 333.25C516.617 333.533 516.391 333.75 516.128 333.75V335.75C517.509 335.75 518.617 334.624 518.617 333.25H516.617ZM516.128 332.75C516.391 332.75 516.617 332.967 516.617 333.25H518.617C518.617 331.876 517.509 330.75 516.128 330.75V332.75ZM515.638 333.25C515.638 332.967 515.864 332.75 516.128 332.75V330.75C514.746 330.75 513.638 331.876 513.638 333.25H515.638ZM516.128 333.75C515.864 333.75 515.638 333.533 515.638 333.25H513.638C513.638 334.624 514.746 335.75 516.128 335.75V333.75Z" fill="#5F82FF" mask="url(#path-18-inside-2)"/>
<path d="M502.223 342.25C502.223 342.806 501.777 343.25 501.234 343.25C500.691 343.25 500.245 342.806 500.245 342.25C500.245 341.694 500.691 341.25 501.234 341.25C501.777 341.25 502.223 341.694 502.223 342.25Z" fill="#5F82FF" stroke="#5F82FF"/>
<path d="M508.181 348.25C508.181 348.806 507.735 349.25 507.192 349.25C506.648 349.25 506.202 348.806 506.202 348.25C506.202 347.694 506.648 347.25 507.192 347.25C507.735 347.25 508.181 347.694 508.181 348.25Z" fill="#5F82FF" stroke="#5F82FF"/>
<path d="M517.117 350.5C517.117 351.056 516.671 351.5 516.128 351.5C515.584 351.5 515.138 351.056 515.138 350.5C515.138 349.944 515.584 349.5 516.128 349.5C516.671 349.5 517.117 349.944 517.117 350.5Z" fill="#5F82FF" stroke="#5F82FF"/>
<path d="M526.053 348.25C526.053 348.806 525.607 349.25 525.064 349.25C524.521 349.25 524.074 348.806 524.074 348.25C524.074 347.694 524.521 347.25 525.064 347.25C525.607 347.25 526.053 347.694 526.053 348.25Z" fill="#5F82FF" stroke="#5F82FF"/>
<path d="M531.266 342.25C531.266 342.806 530.82 343.25 530.277 343.25C529.734 343.25 529.287 342.806 529.287 342.25C529.287 341.694 529.734 341.25 530.277 341.25C530.82 341.25 531.266 341.694 531.266 342.25Z" fill="#5F82FF" stroke="#5F82FF"/>
<path d="M533.5 333.25C533.5 333.806 533.054 334.25 532.511 334.25C531.968 334.25 531.521 333.806 531.521 333.25C531.521 332.694 531.968 332.25 532.511 332.25C533.054 332.25 533.5 332.694 533.5 333.25Z" fill="#5F82FF" stroke="#5F82FF"/>
</g>
<defs>
<filter id="filter0_d" x="902" y="226" width="45" height="45" filterUnits="userSpaceOnUse" color-interpolation-filters="sRGB">
<feFlood flood-opacity="0" result="BackgroundImageFix"/>
<feColorMatrix in="SourceAlpha" type="matrix" values="0 0 0 0 0 0 0 0 0 0 0 0 0 0 0 0 0 0 127 0"/>
<feOffset/>
<feGaussianBlur stdDeviation="7.5"/>
<feColorMatrix type="matrix" values="0 0 0 0 0.323144 0 0 0 0 0.512664 0 0 0 0 1 0 0 0 0.25 0"/>
<feBlend mode="normal" in2="BackgroundImageFix" result="effect1_dropShadow"/>
<feBlend mode="normal" in="SourceGraphic" in2="effect1_dropShadow" result="shape"/>
</filter>
<filter id="filter1_d" x="1310" y="112" width="45" height="45" filterUnits="userSpaceOnUse" color-interpolation-filters="sRGB">
<feFlood flood-opacity="0" result="BackgroundImageFix"/>
<feColorMatrix in="SourceAlpha" type="matrix" values="0 0 0 0 0 0 0 0 0 0 0 0 0 0 0 0 0 0 127 0"/>
<feOffset/>
<feGaussianBlur stdDeviation="7.5"/>
<feColorMatrix type="matrix" values="0 0 0 0 0.323144 0 0 0 0 0.512664 0 0 0 0 1 0 0 0 0.25 0"/>
<feBlend mode="normal" in2="BackgroundImageFix" result="effect1_dropShadow"/>
<feBlend mode="normal" in="SourceGraphic" in2="effect1_dropShadow" result="shape"/>
</filter>
<filter id="filter2_d" x="85" y="397" width="45" height="45" filterUnits="userSpaceOnUse" color-interpolation-filters="sRGB">
<feFlood flood-opacity="0" result="BackgroundImageFix"/>
<feColorMatrix in="SourceAlpha" type="matrix" values="0 0 0 0 0 0 0 0 0 0 0 0 0 0 0 0 0 0 127 0"/>
<feOffset/>
<feGaussianBlur stdDeviation="7.5"/>
<feColorMatrix type="matrix" values="0 0 0 0 0.323144 0 0 0 0 0.512664 0 0 0 0 1 0 0 0 0.25 0"/>
<feBlend mode="normal" in2="BackgroundImageFix" result="effect1_dropShadow"/>
<feBlend mode="normal" in="SourceGraphic" in2="effect1_dropShadow" result="shape"/>
</filter>
<filter id="filter3_d" x="493" y="367" width="45" height="45" filterUnits="userSpaceOnUse" color-interpolation-filters="sRGB">
<feFlood flood-opacity="0" result="BackgroundImageFix"/>
<feColorMatrix in="SourceAlpha" type="matrix" values="0 0 0 0 0 0 0 0 0 0 0 0 0 0 0 0 0 0 127 0"/>
<feOffset/>
<feGaussianBlur stdDeviation="7.5"/>
<feColorMatrix type="matrix" values="0 0 0 0 0.323144 0 0 0 0 0.512664 0 0 0 0 1 0 0 0 0.25 0"/>
<feBlend mode="normal" in2="BackgroundImageFix" result="effect1_dropShadow"/>
<feBlend mode="normal" in="SourceGraphic" in2="effect1_dropShadow" result="shape"/>
</filter>
<filter id="filter4_d" x="440" y="280" width="152" height="127.911" filterUnits="userSpaceOnUse" color-interpolation-filters="sRGB">
<feFlood flood-opacity="0" result="BackgroundImageFix"/>
<feColorMatrix in="SourceAlpha" type="matrix" values="0 0 0 0 0 0 0 0 0 0 0 0 0 0 0 0 0 0 127 0"/>
<feOffset dy="10"/>
<feGaussianBlur stdDeviation="15"/>
<feColorMatrix type="matrix" values="0 0 0 0 0.894415 0 0 0 0 0.918495 0 0 0 0 0.984716 0 0 0 1 0"/>
<feBlend mode="normal" in2="BackgroundImageFix" result="effect1_dropShadow"/>
<feBlend mode="normal" in="SourceGraphic" in2="effect1_dropShadow" result="shape"/>
</filter>
<linearGradient id="paint0_linear" x1="278.466" y1="465.443" x2="278.466" y2="10.0051" gradientUnits="userSpaceOnUse">
<stop stop-color="#4B71FF" stop-opacity="0"/>
<stop offset="1" stop-color="#6B89F8"/>
</linearGradient>
</defs>
</svg>
