<svg width="917" height="29" viewBox="0 0 917 29" fill="none" xmlns="http://www.w3.org/2000/svg">
<path fill-rule="evenodd" clip-rule="evenodd" d="M515.15 23.5391C515.945 23.5391 516.578 24.167 516.578 24.9541C516.578 25.75 515.945 26.3691 515.143 26.3691C514.349 26.3691 513.704 25.75 513.704 24.9541C513.704 24.167 514.349 23.5391 515.143 23.5391H515.15ZM423.21 26.1798H419.276L419.108 25.2158C417.31 26.1798 415.707 26.3372 414.651 26.3372C411.763 26.3372 410.228 24.4694 410.228 21.8836C410.228 18.8343 412.02 17.7448 415.226 17.7448H418.487V17.0868C418.487 15.5303 418.305 15.074 415.827 15.074H411.804L412.199 11.2535H416.612C422.026 11.2535 423.214 12.9161 423.214 17.1186V26.1798H423.21ZM481.827 20.1891C481.827 23.3021 480.503 26.3213 474.96 26.3213C469.412 26.3213 468.062 23.3021 468.062 20.1891V17.1823C468.062 14.0693 469.41 11.0501 474.958 11.0501C480.514 11.0501 481.844 14.0693 481.844 17.1841V20.1909L481.827 20.1891ZM496.942 20.1891C496.942 23.3021 495.616 26.3213 490.075 26.3213C484.525 26.3213 483.175 23.3021 483.175 20.1891V17.1823C483.175 14.0693 484.523 11.0501 490.073 11.0501C495.611 11.0501 496.94 14.0693 496.94 17.1841V20.1909L496.942 20.1891ZM515.143 23.762C514.506 23.762 513.977 24.2926 513.977 24.9523C513.977 25.6244 514.506 26.1515 515.15 26.1515C515.797 26.1692 516.316 25.6386 516.316 24.9665C516.316 24.312 515.797 23.7779 515.15 23.7779H515.143V23.762ZM407.078 26.1497H402.361V15.0775H400V11.2571H402.359V8.96658C402.359 5.85362 403.689 4 407.474 4H410.625V7.82044H408.658C407.182 7.82044 407.084 8.35106 407.084 9.34862L407.066 11.2588H410.636L410.217 15.0793H407.068V26.1515L407.078 26.1497ZM514.872 25.7783H514.613V24.1988C514.759 24.1811 514.886 24.1635 515.087 24.1635C515.336 24.1635 515.498 24.2112 515.597 24.2802C515.695 24.3509 515.742 24.4571 515.742 24.6074C515.742 24.8143 515.604 24.9399 515.433 24.9912V25.0036C515.571 25.0284 515.669 25.1522 515.706 25.3856C515.742 25.6297 515.779 25.7252 515.804 25.7748H515.531C515.495 25.7252 515.453 25.5802 515.422 25.375C515.385 25.1716 515.276 25.0973 515.072 25.0973H514.89V25.7765L514.872 25.7783ZM514.872 24.9028H515.059C515.272 24.9028 515.453 24.8267 515.453 24.6322C515.453 24.4942 515.351 24.3562 515.059 24.3562C514.975 24.3562 514.914 24.3615 514.872 24.3686V24.9028ZM414.948 21.8252C414.948 22.66 415.356 23.0934 416.252 23.0934C417.217 23.0934 417.785 22.7892 418.489 22.4743V20.8029H416.383C415.385 20.8029 414.948 20.9797 414.948 21.8234V21.8252ZM460.016 14.8635C459.051 14.8635 458.358 15.1642 457.655 15.4826V22.5221C458.329 22.584 458.715 22.584 459.357 22.584C461.67 22.584 461.983 21.5581 461.983 20.1255V16.7578C461.983 15.7036 461.619 14.8529 460.016 14.8529V14.8635ZM474.944 14.8635C473.337 14.8635 472.781 15.7125 472.781 16.756V20.6119C472.781 21.6731 473.337 22.5221 474.944 22.5221C476.546 22.5221 477.104 21.6731 477.104 20.6119V16.756C477.104 15.7019 476.539 14.8511 474.936 14.8511L474.944 14.8635ZM436.587 15.3411C434.139 14.9342 433.436 14.8458 432.259 14.8458C430.143 14.8458 429.503 15.2933 429.503 17.039V20.3289C429.503 22.0711 430.141 22.5221 432.259 22.5221C433.438 22.5221 434.139 22.4336 436.587 22.0268V25.7482C434.443 26.2169 433.046 26.339 431.866 26.339C426.798 26.339 424.784 23.7566 424.784 20.0246V17.3539C424.784 13.6148 426.798 11.0271 431.866 11.0271C433.046 11.0271 434.443 11.1509 436.587 11.6197V15.3411ZM451.36 20.0282H442.704V20.3289C442.704 22.0711 443.342 22.5221 445.458 22.5221C447.362 22.5221 448.518 22.4336 450.963 22.0268V25.7482C448.608 26.2169 447.38 26.339 445.067 26.339C440.003 26.339 437.999 23.7566 437.999 20.0246V16.9647C437.999 13.6979 439.493 11.0218 444.684 11.0218C449.885 11.0218 451.369 13.6661 451.369 16.9647V20.0246L451.36 20.0282ZM490.057 14.8635C488.454 14.8635 487.898 15.7125 487.898 16.7613V20.6225C487.898 21.6837 488.454 22.5327 490.057 22.5327C491.66 22.5327 492.224 21.6837 492.224 20.6225V16.7596C492.224 15.7036 491.66 14.8529 490.057 14.8529V14.8635ZM512.456 26.148H507.343L503.015 19.1438V26.148H498.297V5.14083L503.015 4.38028V17.9022L507.341 11.2518H512.442L507.715 18.5035L512.438 26.1444L512.456 26.148ZM444.671 14.4744C443.068 14.4744 442.704 15.3234 442.704 16.3846V16.9736H446.639V16.3793C446.639 15.3358 446.274 14.4797 444.671 14.4797V14.4744ZM466.705 20.0989C466.705 23.7071 465.63 26.3425 459.182 26.3425C456.857 26.3425 455.491 26.1409 452.923 25.7588V5.13729L457.641 4.37674V11.5878C458.661 11.2199 459.981 11.0342 461.184 11.0342C465.901 11.0342 466.685 13.0859 466.685 16.3811V20.1131L466.705 20.0989Z" fill="#D6DAE5"/>
<path fill-rule="evenodd" clip-rule="evenodd" d="M681.923 18.7478C680.229 18.3233 680.229 18.3057 680.229 17.4036C680.229 16.796 680.291 16.506 681.686 16.506C682.644 16.506 684.054 16.6652 684.961 16.819C685.085 16.8367 685.213 16.8102 685.315 16.7306C685.417 16.6599 685.482 16.5449 685.497 16.4211L685.756 14.4003C685.774 14.1704 685.628 13.9581 685.391 13.9051C684.335 13.6698 682.878 13.516 681.675 13.516C677.468 13.516 676.611 15.0547 676.611 17.3665C676.611 19.9072 677.094 20.7624 680.313 21.523C682.433 22.0182 682.433 22.3852 682.433 22.9954C682.433 23.7967 682.36 24.0744 680.976 24.0744C679.857 24.0744 678.564 23.9063 677.427 23.6109C677.3 23.5809 677.172 23.6003 677.063 23.664C676.954 23.733 676.876 23.8409 676.852 23.9647L676.504 25.8935C676.462 26.1146 676.595 26.3312 676.814 26.4002C678.056 26.7893 679.837 27.0546 681.145 27.0546C685.215 27.0546 686.045 25.392 686.045 22.9158C686.045 20.1743 685.546 19.6614 681.918 18.7293L681.923 18.747V18.7478ZM671.371 18.7478C669.677 18.3233 669.677 18.3057 669.677 17.4036C669.677 16.796 669.739 16.506 671.134 16.506C672.09 16.506 673.502 16.6652 674.409 16.819C674.533 16.8367 674.661 16.8102 674.763 16.7306C674.865 16.6599 674.93 16.5449 674.945 16.4211L675.203 14.4003C675.233 14.1704 675.079 13.9581 674.848 13.9051C673.81 13.6698 672.353 13.516 671.15 13.516C666.954 13.516 666.087 15.0547 666.087 17.3665C666.087 19.9072 666.578 20.7624 669.795 21.523C671.915 22.0182 671.915 22.3852 671.915 22.9954C671.915 23.7967 671.843 24.0744 670.458 24.0744C669.338 24.0744 668.045 23.9063 666.906 23.6109C666.779 23.5809 666.651 23.6003 666.542 23.664C666.433 23.733 666.354 23.8409 666.331 23.9647L665.966 25.8838C665.93 26.1048 666.057 26.3224 666.281 26.3914C667.52 26.7805 669.302 27.0458 670.611 27.0458C674.673 27.0458 675.511 25.3832 675.511 22.907C675.511 20.1655 675.005 19.6525 671.376 18.7204L671.371 18.7381V18.7478ZM634.02 9.45673C633.96 9.26924 633.783 9.1419 633.579 9.1419H629.265C629.065 9.1419 628.883 9.26836 628.822 9.45408L623.379 26.203C623.337 26.3357 623.361 26.486 623.448 26.601C623.535 26.7159 623.674 26.784 623.821 26.784H626.791C626.996 26.784 627.177 26.6514 627.235 26.4657L630.985 14.1377C630.985 14.1377 631.085 13.8281 631.422 13.8281C631.768 13.8281 631.859 14.1465 631.859 14.1465L633.599 19.9921H631.267C631.067 19.9921 630.884 20.1274 630.83 20.3193L630.156 22.6364C630.119 22.769 630.156 22.9194 630.229 23.0255C630.32 23.1378 630.465 23.2024 630.611 23.2024H634.591L635.639 26.4683C635.697 26.654 635.875 26.7814 636.076 26.7814H639.045C639.191 26.7814 639.333 26.7106 639.42 26.5957C639.511 26.4789 639.537 26.3304 639.493 26.1942L634.044 9.42666L634.026 9.45496L634.02 9.45673ZM690.761 13.7848H688.029C687.774 13.7848 687.568 13.9855 687.568 14.2332V26.3666C687.568 26.6142 687.776 26.8194 688.031 26.8194H690.763C691.018 26.8194 691.225 26.6187 691.225 26.3684V14.2376C691.225 13.99 691.024 13.7928 690.769 13.7928L690.76 13.7857L690.761 13.7848ZM652.017 8.81468H649.285C649.03 8.81468 648.824 9.01543 648.824 9.26305V26.3666C648.824 26.6142 649.032 26.8194 649.287 26.8194H652.019C652.274 26.8194 652.48 26.6187 652.48 26.3684V9.26748C652.48 9.01985 652.279 8.82264 652.024 8.82264L652.017 8.81557V8.81468ZM713.439 13.5239C711.996 13.5239 710.024 14.0085 708.357 14.7691L708.157 14.1147C708.102 13.9201 707.92 13.7919 707.715 13.7919H705.693C705.438 13.7919 705.229 13.9926 705.229 14.2402V26.3737C705.229 26.6213 705.429 26.8247 705.684 26.8247H708.416C708.671 26.8247 708.881 26.6248 708.881 26.3737V17.9722C709.865 17.4859 711.249 16.9818 712.071 16.9818C712.687 16.9818 712.915 17.2064 712.915 17.8042V26.3648C712.915 26.616 713.124 26.8159 713.379 26.8159H716.111C716.366 26.8159 716.572 26.616 716.572 26.3648V17.4567C716.572 14.8522 715.516 13.5301 713.437 13.5301H713.436L713.439 13.5239ZM610.167 20.7377C610.094 20.6669 609.99 20.5917 609.812 20.5917C609.584 20.5917 609.451 20.7438 609.4 20.8181C608.125 22.7107 607.469 24.4971 607.378 26.2923C607.376 26.425 607.427 26.5576 607.52 26.6549C607.611 26.761 607.747 26.8141 607.884 26.8141H610.911C611.175 26.8141 611.394 26.6195 611.412 26.3719C611.485 25.5052 611.758 24.6386 612.268 23.7365C612.441 23.4182 612.305 23.1263 612.205 22.9998C611.704 22.3631 611.091 21.691 610.18 20.766L610.176 20.7483L610.167 20.7377ZM660.876 22.0288V23.5915C660.43 23.8391 659.61 24.1752 658.617 24.1752C657.77 24.1752 657.506 23.9275 657.506 23.0962C657.506 22.3003 657.67 22.0492 658.672 22.0492H660.876V22.0297V22.0288ZM699.693 22.0288V23.5915C699.238 23.8391 698.418 24.1752 697.434 24.1752C696.587 24.1752 696.323 23.9275 696.323 23.0962C696.323 22.3003 696.487 22.0492 697.489 22.0492H699.693V22.0297V22.0288ZM646.969 24.2265C646.95 24.0991 646.878 23.9877 646.768 23.9169C646.659 23.8462 646.53 23.825 646.402 23.855C645.91 23.9718 645.455 24.0354 645.091 24.0354C644.417 24.0354 644.107 23.7524 644.107 23.1157V16.6864H646.757C647.012 16.6864 647.22 16.483 647.22 16.2354V14.2279C647.22 13.9802 647.011 13.7768 646.755 13.7768H644.114V10.6913C644.114 10.5586 644.052 10.4375 643.95 10.3508C643.85 10.265 643.714 10.227 643.586 10.2447L640.854 10.6161C640.624 10.6453 640.453 10.8346 640.453 11.0583V13.7821H638.962C638.707 13.7821 638.499 13.9829 638.499 14.2305V16.2469C638.499 16.4945 638.718 16.6997 638.973 16.6997H640.459V23.5358C640.459 25.8855 641.729 27.0732 644.235 27.0732C644.946 27.0732 646.159 26.914 646.949 26.6487C647.159 26.578 647.288 26.3719 647.254 26.1535L646.958 24.2344L646.967 24.2212L646.969 24.2265ZM659.045 13.5301C657.66 13.5301 655.977 13.7423 654.755 14.0696C654.518 14.1315 654.372 14.3481 654.409 14.5736L654.724 16.5016C654.742 16.6192 654.815 16.7253 654.915 16.7961C655.017 16.8668 655.145 16.8845 655.268 16.8668C656.403 16.6546 657.576 16.5307 658.569 16.5307C660.536 16.5307 660.853 16.9375 660.853 18.2287V19.3607H657.939C655.145 19.3607 653.95 20.475 653.95 23.1104C653.95 25.622 655.261 27.0546 657.538 27.0546C658.862 27.0546 660.185 26.7009 661.296 26.0465L661.414 26.4586C661.469 26.6532 661.651 26.7858 661.861 26.7858H664.079C664.334 26.7858 664.54 26.5824 664.54 26.3348V18.2694C664.54 14.8027 663.056 13.5115 659.057 13.5115L659.041 13.5204L659.045 13.5301ZM697.855 13.5301C696.471 13.5301 694.795 13.7423 693.574 14.0696C693.347 14.1315 693.201 14.3481 693.242 14.5736L693.561 16.5016C693.579 16.6192 693.652 16.7253 693.752 16.7961C693.856 16.8668 693.983 16.8845 694.107 16.8668C695.237 16.6546 696.402 16.5307 697.404 16.5307C699.372 16.5307 699.681 16.9375 699.681 18.2287V19.3607H696.767C693.962 19.3607 692.767 20.475 692.767 23.1104C692.767 25.622 694.075 27.0546 696.355 27.0546C697.678 27.0546 698.996 26.7009 700.107 26.0465L700.226 26.4586C700.28 26.6532 700.463 26.7858 700.672 26.7858H702.876C703.131 26.7858 703.341 26.5824 703.341 26.3348V18.2694C703.341 14.8027 701.856 13.5115 697.858 13.5115L697.862 13.5204L697.855 13.5301ZM622.45 8.89604C622.359 8.82972 622.254 8.79611 622.147 8.79611C622.074 8.79611 622.019 8.80672 621.964 8.82795C620.871 9.22945 619.779 9.53544 618.777 9.76006C618.576 9.81313 618.398 9.95462 618.34 10.1315C617.611 12.0771 615.735 13.9343 613.786 15.8622C613.713 15.9329 613.604 16.039 613.421 16.039C613.239 16.039 613.13 15.9506 613.057 15.8745C611.09 13.9378 609.232 12.0983 608.503 10.1527C608.43 9.97585 608.266 9.83435 608.066 9.78129C607.064 9.55136 605.953 9.24183 604.878 8.84387C604.824 8.82618 604.754 8.81733 604.696 8.81733C604.587 8.81733 604.481 8.85271 604.392 8.91727C604.254 9.01455 604.183 9.18258 604.199 9.34176C604.363 10.9566 605.028 12.5343 606.212 14.1881C607.332 15.7445 608.78 17.1861 610.192 18.578C612.778 21.1427 615.228 23.5658 615.445 26.3781C615.463 26.6293 615.682 26.8256 615.941 26.8256H618.983C619.119 26.8256 619.252 26.7725 619.347 26.6753C619.442 26.578 619.493 26.4489 619.483 26.3162C619.387 24.4387 618.658 22.5577 617.256 20.5652C616.964 20.1496 616.655 19.7427 616.324 19.3448C616.191 19.1856 616.247 18.9822 616.349 18.8831L616.659 18.5789C618.068 17.1905 619.519 15.749 620.639 14.1925C621.823 12.5432 622.479 10.9734 622.647 9.35945C622.666 9.19584 622.589 9.02339 622.454 8.92346L622.463 8.91019L622.45 8.89604ZM613.433 10.3464C614.387 10.3464 614.941 10.2871 615.134 10.2871C615.352 10.2871 615.589 10.464 615.589 10.7293C615.589 10.8001 615.571 10.8531 615.553 10.9062C615.425 11.2316 614.842 12.4132 613.767 13.4266C613.64 13.5398 613.512 13.5611 613.421 13.5611C613.33 13.5611 613.185 13.5398 613.063 13.4266C611.988 12.4132 611.412 11.2334 611.287 10.9027C611.268 10.8496 611.25 10.7965 611.25 10.7169C611.25 10.4605 611.474 10.2659 611.709 10.2659C611.904 10.2659 612.456 10.319 613.41 10.319H613.414L613.432 10.3367L613.433 10.3464ZM690.759 8.8191H688.034C687.779 8.8191 687.572 9.01366 687.572 9.26128V11.596C687.572 11.8436 687.779 12.0453 688.034 12.0453H690.767C691.022 12.0453 691.228 11.8507 691.228 11.6031V9.24979C691.228 9.00217 691.022 8.80318 690.767 8.80318L690.759 8.82441V8.8191ZM626.74 3.24939C626.618 3.0902 626.43 3.00177 626.229 3.00177C626.127 3.00177 626.025 3.02299 625.938 3.07252C622.204 5.05349 617.88 6.10234 613.429 6.10411C608.979 6.10411 604.654 5.05349 600.924 3.07075C600.833 3.01769 600.733 3 600.632 3C600.432 3 600.241 3.08844 600.122 3.24762C599.946 3.45987 599.94 3.84899 600.241 4.07892C602.108 5.42315 604.168 6.48439 606.361 7.20956C608.638 7.95243 611.013 8.34155 613.429 8.34155C615.846 8.34155 618.223 7.95243 620.496 7.20956C622.691 6.48439 624.751 5.42315 626.622 4.07892C626.923 3.84899 626.913 3.45987 626.74 3.22993V3.24939H626.74Z" fill="#5982E7"/>
<path fill-rule="evenodd" clip-rule="evenodd" d="M905.422 17.6368C905.422 15.3331 904.452 12.6667 901.434 8.94974L894.157 0H884.026L889.794 6.27897C890.765 7.32605 892.003 8.26702 892.003 8.26702C890.601 7.48259 888.825 7.16864 887.422 7.16864C884.081 7.16864 880.686 7.8496 877.668 9.47152C874.434 11.1978 872.276 14.0764 872.276 17.8977C872.276 20.8276 873.626 23.0783 875.35 24.8046C879.23 28.5746 886.291 28.9399 888.878 28.9399C892.705 28.9399 898.689 28.1015 902.083 25.1194C904.079 23.3401 905.425 20.8807 905.425 17.6377L905.422 17.6368ZM916.578 7.74524H907.793V28.2598H916.578V7.74524ZM844.357 28.2598L824.953 0H814.067L817.075 3.45343L800 28.2598H809.809L812.735 23.6027H831.237L834.224 28.258H844.357V28.2598ZM870.065 19.6771V7.74524H861.552V16.9037C861.552 19.5214 861.442 20.2519 861.281 20.932C860.689 22.8157 858.64 23.6523 856.536 23.6523C853.626 23.6523 852.278 22.553 851.741 20.8258C851.577 20.251 851.525 19.6249 851.471 18.9952C851.417 18.316 851.471 17.5829 851.471 16.7976V7.74524H842.848V19.7283C842.848 22.3991 843.763 24.3863 845.273 25.7482C847.859 28.2067 852.225 28.9407 856.268 28.9407C861.174 28.9407 864.948 28.2598 867.642 25.6951C869.044 24.3863 870.068 22.66 870.068 19.6771H870.065ZM897.015 17.8977C897.015 20.0423 895.56 21.6651 893.727 22.5548C892.219 23.3401 890.439 23.5488 888.876 23.5488C887.313 23.5488 885.48 23.2366 883.971 22.5026C882.139 21.6138 880.738 19.8866 880.738 18.0012C880.738 15.7523 882.516 13.9729 884.618 13.0824C885.911 12.5058 887.475 12.2971 888.713 12.2971C889.899 12.2971 891.625 12.4536 892.971 12.978C895.398 13.9729 897.015 15.8557 897.015 17.8977ZM827.817 18.0879H816.091L821.934 8.726L827.818 18.0879H827.817Z" fill="#D6DAE5"/>
<path fill-rule="evenodd" clip-rule="evenodd" d="M215.13 8.86686C213.07 8.71917 211.324 9.98381 210.35 9.98381C209.361 9.98381 207.836 8.8987 206.22 8.92699C204.097 8.95883 202.14 10.1262 201.046 11.9727C198.841 15.6897 200.484 21.1958 202.631 24.2097C203.681 25.6848 204.934 27.3438 206.579 27.2837C208.164 27.2227 208.762 26.287 210.677 26.287C212.59 26.287 213.13 27.2837 214.805 27.2519C216.509 27.2227 217.591 25.7502 218.632 24.2671C219.839 22.5577 220.336 20.903 220.365 20.8128C220.326 20.8004 217.041 19.5738 217.009 15.8993C216.979 12.8279 219.591 11.3501 219.711 11.2785C218.227 9.1587 215.937 8.92523 215.13 8.86686ZM297.426 20.8641V21.1896C297.426 24.3971 295.01 27.2669 290.161 27.2669C285.325 27.2669 282.451 24.3193 282.451 19.1679V17.0163C282.451 11.9179 285.339 8.87836 290.173 8.87836C294.713 8.87836 297.426 11.657 297.426 15.1255V15.3077H293.785C293.785 13.5478 292.631 11.9825 290.2 11.9825C287.608 11.9825 286.304 13.6645 286.304 17.0163V19.1679C286.304 22.5586 287.595 24.1371 290.226 24.1371C292.846 24.1371 293.785 22.7018 293.785 20.8641H297.426ZM231.226 21.8811H231.279L234.544 9.16577H238.398L241.675 21.8811H241.729L244.765 9.16577H248.821L243.731 26.968H239.875L236.504 14.7992H236.437L233.065 26.968H229.238L224.134 9.16577H228.191L231.226 21.8811ZM305.269 16.3123H312.763V9.16577H316.578V26.968H312.763V19.3775H305.269V26.968H301.469V9.16577H305.269V16.3123ZM279.993 9.16577V12.2434H274.527V26.968H270.739V12.2434H265.287V9.16577H279.993ZM259.457 9.16577L265.353 26.9671H261.283L259.976 22.4807H254.177L252.849 26.9671H249.048L254.958 9.16577H259.457ZM259.181 19.7427L257.121 12.674H257.081L254.989 19.7427H259.181ZM213.775 6.97167C212.896 7.95154 211.51 8.69706 210.15 8.59536C209.957 7.2016 210.668 5.74771 211.477 4.83859C212.379 3.8145 213.901 3.04776 215.16 3C215.322 4.42029 214.733 5.85118 213.858 6.87527L213.817 6.92391L213.775 6.97167Z" fill="#D6DAE5"/>
<path fill-rule="evenodd" clip-rule="evenodd" d="M14.9321 23.2004C14.7617 23.2004 14.677 23.2835 14.677 23.2835C14.677 23.2835 12.5431 24.9461 8.7024 24.9461C4.86351 24.9452 2.73231 23.2826 2.73231 23.2826C2.73231 23.2826 2.56199 23.2004 2.47729 23.2004C2.30607 23.2004 2.13484 23.2835 2.13484 23.532V23.6142C2.47638 25.3547 2.73231 26.5972 2.73231 26.7626C2.98732 28.006 5.5484 29 8.61952 29C11.6915 29 14.2517 28.006 14.5076 26.7626C14.5076 26.5972 14.7627 25.3547 15.0996 23.6142V23.532C15.1816 23.3657 15.0996 23.2004 14.9266 23.2004H14.9321ZM32.2531 19.1411C33.3624 18.561 33.7895 17.7323 33.7895 16.488V14.7485C33.7895 12.2634 32.2531 11.0218 29.0107 11.0218H22.5261C22.271 11.0218 22.0998 11.1881 22.0998 11.4375V27.6743C22.0998 27.9237 22.2701 28.09 22.5261 28.09H29.5226C32.5946 28.09 34.3861 26.5981 34.3861 24.0308V22.2886C34.3861 20.7984 33.6183 19.639 32.2531 19.1402V19.1411ZM38.909 15.4949H36.2677C36.0127 15.4949 35.8397 15.6612 35.8397 15.9106V27.6743C35.8397 27.922 36.0127 28.09 36.2677 28.09H38.9181C39.1731 28.09 39.3461 27.922 39.3461 27.6743V15.9097C39.3461 15.6621 39.1731 15.494 38.9181 15.494L38.909 15.4949ZM102.481 15.2473C98.9013 15.2473 97.1071 16.9868 97.1071 20.2174V23.4489C97.1071 26.7634 98.9013 28.3376 102.654 28.3376C104.193 28.3376 105.814 28.09 107.18 27.5912C107.351 27.509 107.521 27.3436 107.435 27.0942L107.009 25.2724C107.009 25.1884 106.924 25.023 106.839 25.023C106.753 24.9399 106.584 24.9399 106.497 24.9399C105.304 25.2715 104.109 25.4378 103 25.4378C101.037 25.4378 100.696 24.8576 100.696 23.532V23.1163H107.266C107.521 23.1163 107.694 22.9518 107.694 22.7033V20.3837C107.608 16.9037 105.987 15.2455 102.489 15.2455L102.481 15.2473ZM55.6398 25.3555C54.9567 25.3555 54.4467 25.3555 53.9367 25.2715V18.8864C54.7053 18.5504 55.729 18.2232 56.4959 18.2232C57.5205 18.2232 57.9477 18.6388 57.9477 19.5497V23.2729C57.9477 24.6817 57.6061 25.3449 55.6434 25.3449L55.6398 25.3555ZM116.306 25.6032C116.306 25.52 116.224 25.3555 116.139 25.2715C116.054 25.1831 115.884 25.1831 115.798 25.1831C115.286 25.2627 114.86 25.3511 114.518 25.3511C113.835 25.3511 113.58 25.1035 113.58 24.4402V18.2232H116.139C116.394 18.2232 116.564 18.0551 116.564 17.8075V15.9061C116.564 15.6585 116.394 15.4905 116.139 15.4905H113.579V12.5102C113.579 12.3422 113.492 12.2581 113.406 12.1759C113.321 12.0928 113.151 12.0928 113.065 12.0928L110.421 12.4288C110.166 12.4288 109.993 12.6764 109.993 12.8418V15.4931H108.545C108.29 15.4931 108.116 15.6594 108.116 15.9088V17.8128C108.116 18.0604 108.29 18.2285 108.545 18.2285H109.993V24.8541C109.993 27.0915 111.189 28.2501 113.663 28.2501C114.346 28.2501 115.539 28.0865 116.308 27.8344C116.479 27.7548 116.65 27.5868 116.563 27.3392L116.308 25.6005L116.306 25.6032ZM48.8163 25.6032C48.8163 25.52 48.7316 25.3555 48.646 25.2715C48.5613 25.1831 48.391 25.1831 48.3054 25.1831C47.8773 25.2627 47.3673 25.3511 47.0257 25.3511C46.3427 25.3511 46.0876 25.1035 46.0876 24.4402V18.2232H48.6469C48.9019 18.2232 49.075 18.0551 49.075 17.8075V15.9061C49.075 15.6585 48.9019 15.4905 48.6469 15.4905H46.0849V12.5102C46.0849 12.3422 45.9993 12.2581 45.9137 12.1759C45.8281 12.0928 45.6587 12.0928 45.5721 12.0928L42.9291 12.4288C42.6741 12.4288 42.5038 12.6764 42.5038 12.8418V15.4931H41.0484C40.7933 15.4931 40.6203 15.6594 40.6203 15.9088V17.8128C40.6203 18.0604 40.7915 18.2285 41.0484 18.2285H42.4983V24.8541C42.4983 27.0915 43.6914 28.2501 46.166 28.2501C46.849 28.2501 48.0422 28.0865 48.8072 27.8344C48.9802 27.7548 49.1487 27.5868 49.0622 27.3392L48.8072 25.6005L48.8163 25.6032ZM84.227 25.4378C84.227 25.3547 84.1414 25.1884 84.0567 25.1062C83.972 25.023 83.8017 25.023 83.7161 25.023C82.9483 25.1884 82.1805 25.2706 81.4118 25.2706C79.7059 25.2706 79.2788 24.8576 79.2788 23.4489V20.0529C79.2788 18.6432 79.7906 18.2294 81.4118 18.2294C81.8399 18.2294 82.778 18.3125 83.7161 18.477C83.8008 18.477 83.9711 18.477 84.0567 18.3947C84.1405 18.3125 84.2261 18.2294 84.2261 18.0631L84.5695 16.075C84.5695 15.8274 84.4829 15.6612 84.227 15.578C83.2042 15.2464 82.0093 15.1624 81.3271 15.1624C77.3161 15.1624 75.694 16.5721 75.694 20.0529V23.3657C75.694 26.8457 77.3152 28.2545 81.3244 28.2545C82.2625 28.2545 83.3718 28.0891 84.2252 27.8388C84.4802 27.7575 84.5667 27.5912 84.5667 27.3436L84.2243 25.4378H84.227ZM25.6919 25.1062H28.8504C30.2166 25.1062 30.7266 24.7745 30.7266 23.6974V22.4504C30.7266 21.3715 30.3022 20.9558 29.1054 20.9558H27.9943C27.7393 20.9558 27.5662 20.7878 27.5662 20.5402V18.4805C27.5662 18.2311 27.7393 18.0649 27.9943 18.0649H28.5918C29.7011 18.0649 30.1273 17.651 30.1273 16.657V15.1642C30.1273 14.584 29.9616 14.0039 28.5972 14.0039H25.6837V25.1062H25.6919ZM73.6439 15.4949H71.0026C70.7476 15.4949 70.5746 15.6612 70.5746 15.9106V24.029C69.6365 24.526 68.2703 25.023 67.5053 25.023C66.9069 25.023 66.6492 24.7754 66.6492 24.1944V15.9159C66.6492 15.6682 66.4761 15.5002 66.2211 15.5002H63.5717C63.3167 15.5002 63.1454 15.6682 63.1454 15.9159V24.5322C63.1454 27.0173 64.1673 28.3438 66.2147 28.3438C67.5809 28.3438 69.5427 27.8459 71.1638 27.1004L71.3342 27.7637C71.4225 27.9299 71.5937 28.0962 71.7622 28.0962H73.7267C73.9818 28.0962 74.153 27.9282 74.153 27.6805V15.9097C74.0674 15.7416 73.898 15.494 73.6411 15.494L73.6439 15.4949ZM8.70604 9.53077C3.92541 9.53077 0 10.7715 0 12.3457C0 12.7613 1.0237 18.6424 1.45086 20.9629C1.62117 22.0392 4.43818 23.5311 8.70331 23.5311C12.9694 23.5311 15.6998 22.0454 15.9558 20.9665C16.3747 18.6494 17.4039 12.7684 17.4039 12.3528C17.3128 10.7786 13.4785 9.53696 8.69693 9.53696L8.70604 9.53077ZM8.70604 21.6262C7.1714 21.6262 5.97647 20.4659 5.97647 18.9749C5.97647 17.4803 7.16957 16.3218 8.70513 16.3218C10.2407 16.3218 11.4356 17.4803 11.4356 18.9749C11.4356 20.381 10.2407 21.6191 8.70513 21.6191L8.70604 21.6262ZM96.5934 27.3427L93.0943 21.7093L96.5096 16.1644C96.5943 15.9963 96.5943 15.8354 96.5096 15.7487C96.4231 15.5869 96.2528 15.5011 96.0816 15.5011H93.1808C93.0096 15.5011 92.8383 15.5869 92.7527 15.7487L89.5104 21.222V11.1049C89.5104 10.8555 89.3373 10.6893 89.0823 10.6893H86.4365C86.1815 10.6893 86.0085 10.8555 86.0085 11.1049V27.5894C86.0085 27.8371 86.1815 28.0051 86.4365 28.0051H89.0814C89.3364 28.0051 89.5095 27.8371 89.5095 27.5894V22.2037L92.9194 27.8371C93.005 28.0051 93.1744 28.0873 93.2609 28.0873H96.1608C96.4158 28.0873 96.5889 27.9211 96.5889 27.6717C96.6727 27.5072 96.6727 27.4241 96.5889 27.3409L96.5934 27.3427ZM100.604 20.3032V19.8875C100.604 18.6494 101.2 18.1542 102.48 18.1542C103.931 18.1542 104.187 18.8175 104.187 19.8964V20.312H100.604V20.3032ZM8.70695 17.5696C9.45925 17.5696 10.0731 18.1692 10.0731 18.8962C10.0731 19.6302 9.45925 20.2227 8.70695 20.2227C7.95466 20.2227 7.3408 19.6302 7.3408 18.8962C7.3408 18.1692 7.95284 17.5696 8.70695 17.5696ZM57.4276 15.2526C56.148 15.2526 54.7828 15.5869 53.9303 15.9159V11.1934C53.9303 10.9457 53.7591 10.7777 53.5022 10.7777H50.8573C50.6023 10.7777 50.4293 10.9457 50.4293 11.1934V27.5983C50.4293 27.8459 50.6023 28.0139 50.7708 28.0139C52.392 28.2616 54.3547 28.4296 55.464 28.4296C60.4131 28.4296 61.4368 26.3584 61.4368 23.2914V19.7275C61.4368 16.7472 60.0707 15.2526 57.4267 15.2526H57.4276ZM36.2668 13.758C36.0118 13.758 35.8388 13.5918 35.8388 13.3424V11.1049C35.8388 10.8555 36.0118 10.6893 36.2668 10.6893H38.9126C39.1694 10.6893 39.3407 10.9387 39.3407 11.1049V13.3406C39.3407 13.5882 39.1694 13.7563 38.9126 13.7563H36.2668V13.758ZM8.70513 13.1743C5.63219 13.1743 3.15855 12.6791 3.15855 12.0158C3.15855 11.3526 5.63219 10.8555 8.70513 10.8555C11.7762 10.8555 14.2517 11.3526 14.2517 12.0141C14.2517 12.6773 11.7762 13.1752 8.70513 13.1752V13.1743ZM42.92 6.63006C42.4938 6.63006 41.8107 6.4638 41.4691 6.21441C41.3872 6.21441 41.3872 6.13305 41.3872 6.04992L41.5575 5.38665L41.6395 5.3044H41.8098C42.2378 5.39284 42.6622 5.47243 43.0885 5.47243C43.6076 5.47243 43.6076 5.31325 43.6076 5.05678C43.6076 4.8976 43.6076 4.72957 42.838 4.56154C41.6449 4.31392 41.4719 3.9867 41.4719 3.07581C41.4719 2.24805 41.7287 1.66968 43.2661 1.66968C43.6914 1.66968 44.2889 1.74927 44.6322 1.83417C44.6322 1.83417 44.7142 1.9173 44.7142 1.99954L44.6295 2.74241L44.5448 2.82554H44.3736C44.2224 2.82554 44.0402 2.8105 43.8544 2.79282L43.6932 2.7769C43.5074 2.75921 43.3253 2.74152 43.1759 2.74152C42.6641 2.74152 42.6641 2.82377 42.6641 3.07227C42.6641 3.40833 42.6641 3.40833 43.2615 3.57282C44.5402 3.90534 44.7097 4.15385 44.7097 5.14699C44.7097 6.05257 44.3727 6.63095 42.9519 6.63979H42.9191L42.92 6.63006ZM39.1631 6.63006C38.653 6.63006 38.0547 6.4638 37.4572 6.21441C37.3716 6.21441 37.3716 6.13305 37.3716 6.04992L37.5428 5.38665L37.6339 5.3044H37.8069C38.2323 5.39284 38.6594 5.47243 39.0857 5.47243C39.5957 5.47243 39.5957 5.31325 39.5957 5.05678C39.5957 4.8976 39.5957 4.72957 38.8288 4.56154C37.6357 4.31392 37.4627 3.9867 37.4627 3.07581C37.4627 2.24805 37.7204 1.66968 39.2569 1.66968C39.6831 1.66968 40.2806 1.74927 40.623 1.83417C40.7068 1.83417 40.7924 1.9173 40.7924 1.99954L40.7086 2.74594L40.6249 2.82819H40.5338C40.3853 2.82819 40.2032 2.8105 40.0174 2.79282L39.8571 2.77778C39.6713 2.76009 39.4891 2.74594 39.3379 2.74594C38.8188 2.74594 38.8188 2.82554 38.8188 3.07316C38.8188 3.40656 38.8188 3.40656 39.4181 3.57194C40.6977 3.90534 40.8689 4.15385 40.9536 5.1461C40.9536 6.05257 40.6167 6.63183 39.1959 6.64068H39.1631V6.63006ZM54.6097 1.74131C54.0969 1.74131 53.4139 1.90757 52.7317 2.15696L52.6461 1.90757C52.6461 1.82444 52.5614 1.82444 52.4758 1.82444H51.708C51.6224 1.82444 51.5368 1.90757 51.5368 1.98981V6.38244C51.5368 6.4638 51.6224 6.54693 51.708 6.54693H52.7317C52.8173 6.54693 52.902 6.4638 52.902 6.38156V3.3137C53.2436 3.14833 53.7554 2.98295 54.0969 2.98295C54.352 2.98295 54.4385 3.0652 54.4385 3.3137V6.38244C54.4385 6.4638 54.5232 6.54693 54.6088 6.54693H55.6289C55.7108 6.54693 55.8019 6.4638 55.8019 6.38156V3.14568C55.7108 2.15165 55.3738 1.73689 54.6088 1.73689L54.6097 1.74131ZM46.4173 1.82444H45.3927C45.308 1.82444 45.2233 1.90757 45.2233 1.98981V6.38244C45.2233 6.4638 45.308 6.54693 45.3936 6.54693H46.4228C46.5121 6.54693 46.5959 6.4638 46.5959 6.38156V1.98716C46.5959 1.90492 46.5121 1.82179 46.4228 1.82179L46.4173 1.82444ZM32.4234 0.00265309H31.3997C31.315 0.00265309 31.2294 0.0848987 31.2294 0.167144V6.38244C31.2294 6.4638 31.3113 6.54693 31.3933 6.54693H32.4225C32.5044 6.54693 32.59 6.4638 32.59 6.38156V0.165376C32.59 0.08313 32.5044 -1.30726e-08 32.4197 -1.30726e-08L32.4234 0.00265309ZM25.9387 0.250274C25.9387 0.167144 25.854 0.167144 25.7684 0.167144H24.2328C24.1472 0.167144 24.0616 0.250274 24.0616 0.250274L22.0943 6.29931V6.4638C22.0943 6.54693 22.1763 6.54693 22.261 6.54693H23.3722C23.4559 6.54693 23.5406 6.4638 23.5406 6.4638L24.9068 1.98893C24.9068 1.98893 24.9068 1.90757 25.0771 1.90757C25.1609 1.90757 25.2465 1.98981 25.2465 1.98981L25.8449 4.06187H24.9906C24.9032 4.06187 24.8175 4.14412 24.8175 4.14412L24.5625 4.96658V5.1293C24.5625 5.1293 24.6472 5.21243 24.7328 5.21243H26.181L26.5234 6.37271C26.5234 6.45407 26.609 6.45407 26.6946 6.45407H27.8058C27.8914 6.45407 27.8914 6.45407 27.9788 6.37006V6.20203L25.9387 0.24939V0.250274ZM34.7276 5.55291C35.1557 5.55291 35.4107 5.46978 35.581 5.38753V4.72426H34.7276C34.3861 4.72426 34.3014 4.88964 34.3014 5.13814C34.3014 5.46713 34.3852 5.55114 34.7203 5.55379H34.7276V5.55291ZM30.6319 5.55291C30.6319 5.46978 30.6319 5.46978 30.5472 5.46978H30.376C30.2057 5.55291 30.0344 5.55291 29.8641 5.55291C29.6091 5.55291 29.5226 5.46978 29.5226 5.22127V2.81846H30.4607C30.5472 2.81846 30.6319 2.73622 30.6319 2.65309V1.98981C30.6319 1.90757 30.5472 1.82444 30.4616 1.82444H29.5235V0.664156C29.5235 0.58191 29.5235 0.58191 29.4379 0.58191C29.4379 0.58191 29.3523 0.502318 29.2667 0.58191L28.2429 0.749939C28.1573 0.749939 28.0726 0.838375 28.0726 0.917968V1.90845H27.5608C27.4788 1.90845 27.3968 1.99512 27.3968 2.07648V2.82377C27.3968 2.90778 27.4843 2.9918 27.5699 2.9918H28.0827V5.47685C28.0827 6.30462 28.5089 6.71938 29.4488 6.71938C29.7038 6.71938 30.1301 6.63537 30.3869 6.55135C30.7275 6.38598 30.7275 6.38598 30.7275 6.30373L30.6419 5.55733L30.6319 5.55291ZM48.8063 5.55291C49.2344 5.55291 49.4894 5.46978 49.6597 5.38753V4.72426H48.8063C48.4657 4.72426 48.3801 4.88964 48.3801 5.13814C48.3801 5.46713 48.4638 5.55114 48.799 5.55379H48.8063V5.55291ZM34.9826 1.74131C34.4726 1.74131 33.8742 1.82444 33.448 1.90757C33.3624 1.90757 33.2777 1.98981 33.3624 2.07294L33.4535 2.73622C33.4535 2.81846 33.4535 2.81846 33.5427 2.81846H33.6274C34.0555 2.73622 34.4808 2.73622 34.8205 2.73622C35.5036 2.73622 35.6748 2.90159 35.6748 3.31547V3.73112H34.6457C33.621 3.73112 33.1948 4.14412 33.1948 5.0559C33.1948 5.96679 33.7066 6.4638 34.4744 6.4638C34.9845 6.4638 35.4125 6.29843 35.8388 6.13305V6.29843C35.8388 6.38156 35.9244 6.38156 36.0091 6.38156H36.7778C36.8597 6.38156 36.9508 6.29312 36.9508 6.21353V3.3933C36.9508 2.15077 36.4408 1.736 34.9908 1.736L34.9826 1.74131ZM48.9775 1.74131C48.4657 1.74131 47.8682 1.82444 47.441 1.90757C47.35 1.90757 47.268 1.98981 47.35 2.07294L47.4319 2.73622C47.4319 2.81846 47.4319 2.81846 47.5166 2.81846H47.6023C48.0303 2.73622 48.4556 2.73622 48.7954 2.73622C49.4784 2.73622 49.6515 2.90159 49.6515 3.31547V3.73112H48.6351C47.6123 3.73112 47.1851 4.14412 47.1851 5.0559C47.1851 5.96679 47.697 6.4638 48.4657 6.4638C48.9775 6.4638 49.4038 6.29843 49.8318 6.13305L49.9156 6.29843C49.9156 6.38156 50.0012 6.38156 50.0868 6.38156H50.8546C50.9402 6.38156 51.0249 6.29312 51.0249 6.21353V3.3933C50.9402 2.15077 50.4275 1.736 48.9775 1.736V1.74131ZM46.4183 0.00176874H45.3927C45.308 0.00176874 45.2233 0.0848987 45.2233 0.167144V0.995792C45.2233 1.07538 45.308 1.15498 45.3936 1.15498H46.4228C46.5121 1.15498 46.5959 1.07008 46.5959 0.986948V0.165376C46.5959 0.08313 46.5121 -1.30726e-08 46.4228 -1.30726e-08L46.4183 0.00176874Z" fill="#D6DAE5"/>
</svg>
